# xmcd
#
# Track frame offsets:
#	150
#	15675
#	31058
#	45363
#	59741
#	72698
#	88619
#	102182
#	114706
#	125250
#
# Disc length: 1855 seconds
#
# Revision: 0
# Processed by: cddbd v1.5.2PL0 Copyright (c) Steve Scherf et al.
# Submitted via: EasyCDDAExtractor 16.0.6.1
#
DISCID=84073d0a
DTITLE=Συλλογικός δίσκος - Λαϊκό τραγούδι 1954-1967, 1963-4
DYEAR=2008
DGENRE=Λαϊκή
TTITLE0=Καζαντζίδης Στέλιος - Την έδιωξα κι όμως την αγαπώ [Μανώλης Χιώτης-Χρ.
TTITLE0=Κολοκοτρώνης]
TTITLE1=Πάνου Πόλυ - Ο κόσμος όλος με κατακρίνει [Απόστολος Καλδάρας-Κώστας Βί
TTITLE1=ρβος]
TTITLE2=Μπιθικώτσης Γρηγόρης-Γκίκα Βούλα - Γειά σου Αθήνα, γειά σου Πειραία [Γ
TTITLE2=ρηγ. Μπιθικώτσης-Χρ. Κολοκοτρώνης]
TTITLE3=Γαβαλάς Πάνος-Κούρτη Ρία - Κάποιο πρωϊνό στον Πειραιά [Μίκης Θεοδωράκη
TTITLE3=ς-Χρήστος Κολοκοτρώνης]
TTITLE4=Μενιδιάτης Μιχάλης-Γκίκα Βούλα - Η ζήλια και το φίδι [Νίκος Δαλέζιος]
TTITLE5=Λίντα Μαίρη-Καλδάρας Απόστολος - Το καινούργιο τ' αγοράκι μου [Απόστολ
TTITLE5=ος Καλδάρας]
TTITLE6=Μπιθικώτσης Γρηγόρης-Κούρτη Ρία-Χρηστάκης - Ο κυρ Αλέκος [Γιώργος Ζαμπ
TTITLE6=έτας-Χαράλαμπος Βασιλειάδης]
TTITLE7=Περπινιάδης Βαγγέλης-Νόρμα Ρία - Δεν έχω παλάτια και λεφτά [Βαγγέλης Π
TTITLE7=ερπινιάδης]
TTITLE8=Μαρκάκης Μπάμπης-Καλάκη Ρούλα - Μη χειρότερα Θεέ μου [Μπάμπης Μπακάλης
TTITLE8=]
TTITLE9=Γαβαλάς Πάνος-Κούρτη Ρία - Κάθε λιμάνι και καϋμός [Γιώργος Κατσαρός-Πυ
TTITLE9=θαγόρας]
EXTD=
EXTT0=
EXTT1=
EXTT2=
EXTT3=
EXTT4=
EXTT5=
EXTT6=
EXTT7=
EXTT8=
EXTT9=
PLAYORDER=
